<?xml version="1.0" encoding="iso-8859-1"?>
<!-- Generator: Adobe Illustrator 23.0.3, SVG Export Plug-In . SVG Version: 6.00 Build 0)  -->
<svg version="1.1" xmlns="http://www.w3.org/2000/svg" xmlns:xlink="http://www.w3.org/1999/xlink" x="0px" y="0px"
	 viewBox="0 0 50 50" style="enable-background:new 0 0 50 50;" xml:space="preserve">
<g id="filled">
</g>
<g id="outlined">
</g>
<g id="rounded">
</g>
<g id="two_x5F_tone">
</g>
<g id="sharp">
</g>
<g id="win10">
</g>
<g id="ios_x5F_out">
</g>
<g id="ios_x5F_filled">
	<path d="M26.707,3.293l-21,21c-0.391,0.391-0.391,1.024,0,1.414l5.586,5.586c0.391,0.391,1.024,0.391,1.414,0L39.293,4.707
		C39.923,4.077,39.477,3,38.586,3H27.414C27.149,3,26.895,3.105,26.707,3.293z"/>
	<path d="M39.293,24.707L22,42l-6.293-6.293c-0.391-0.391-0.391-1.024,0-1.414l11-11C26.895,23.105,27.149,23,27.414,23h11.172
		C39.477,23,39.923,24.077,39.293,24.707z"/>
	<path d="M39.293,45.293L32,38l-10,4l4.707,4.707C26.895,46.895,27.149,47,27.414,47h11.172C39.477,47,39.923,45.923,39.293,45.293z
		"/>
</g>
<g id="color">
</g>
</svg>